SplineFontDB: 3.0
FontName: Renner-it-Book
FullName: Renner* Book
FamilyName: Renner*
Weight: Book
Copyright: This typeface is licensed under the SIL open font license.
UComments: "2016-6-10: Created with FontForge (http://fontforge.org)"
Version: 002.300
ItalicAngle: 0
UnderlinePosition: -100
UnderlineWidth: 50
Ascent: 800
Descent: 200
InvalidEm: 0
LayerCount: 2
Layer: 0 0 "Back" 1
Layer: 1 0 "Fore" 0
XUID: [1021 31 -699969567 16188444]
FSType: 0
OS2Version: 0
OS2_WeightWidthSlopeOnly: 0
OS2_UseTypoMetrics: 1
CreationTime: 1465610489
ModificationTime: 1514601720
PfmFamily: 33
TTFWeight: 400
TTFWidth: 5
LineGap: 100
VLineGap: 0
OS2TypoAscent: 800
OS2TypoAOffset: 0
OS2TypoDescent: -200
OS2TypoDOffset: 0
OS2TypoLinegap: 100
OS2WinAscent: 900
OS2WinAOffset: 0
OS2WinDescent: 300
OS2WinDOffset: 0
HheadAscent: 900
HheadAOffset: 0
HheadDescent: -200
HheadDOffset: 0
OS2CapHeight: 700
OS2XHeight: 460
OS2Vendor: 'PfEd'
Lookup: 1 0 0 "alt a" { "simple a"  } ['ss01' ('DFLT' <'dflt' > 'latn' <'dflt' > ) ]
Lookup: 258 0 0 "Lets get our kern on" { "kernin like nobodys business" [150,0,4] } ['kern' ('DFLT' <'dflt' > 'latn' <'dflt' > ) ]
MarkAttachClasses: 1
DEI: 91125
KernClass2: 15 14 "kernin like nobodys business"
 3 A L
 7 D G O Q
 5 F P Y
 5 K X Z
 1 T
 1 U
 3 V W
 9 a c g q s
 7 b e o p
 7 d i j l
 3 f t
 5 h m n
 5 k x z
 7 r v w y
 1 A
 7 C G O Q
 1 T
 1 U
 5 V W Y
 3 X Z
 11 a m n p r s
 11 b h i j k l
 11 c d e g o q
 3 f t
 7 u v w y
 3 x z
 12 period comma

StartChar: H
Encoding: 72 72 0
Width: 715
VWidth: 0
Flags: HMW
LayerCount: 2
Fore
SplineSet
127 340 m 5
 127 420 l 5
 607 420 l 5
 607 340 l 5
 127 340 l 5
550 700 m 5
 635 700 l 5
 635 0 l 5
 550 0 l 5
 550 700 l 5
80 700 m 1
 165 700 l 1
 165 0 l 1
 80 0 l 1
 80 700 l 1
EndSplineSet
Validated: 5
EndChar

StartChar: O
Encoding: 79 79 1
Width: 800
VWidth: 0
Flags: MW
LayerCount: 2
Fore
SplineSet
125 350 m 4
 125 187 242 70 400 70 c 4
 558 70 675 187 675 350 c 4
 675 513 558 630 400 630 c 4
 242 630 125 513 125 350 c 4
40 350 m 4
 40 559 196 710 400 710 c 4
 604 710 760 559 760 350 c 4
 760 141 604 -10 400 -10 c 4
 196 -10 40 141 40 350 c 4
EndSplineSet
Validated: 1
EndChar

StartChar: I
Encoding: 73 73 2
Width: 235
VWidth: 0
Flags: MW
LayerCount: 2
Fore
SplineSet
75 700 m 5
 160 700 l 5
 160 0 l 5
 75 0 l 5
 75 700 l 5
EndSplineSet
Validated: 1
EndChar

StartChar: C
Encoding: 67 67 3
Width: 685
VWidth: 0
Flags: MW
LayerCount: 2
Fore
SplineSet
125 350 m 4
 125 187 242 70 390 70 c 4
 489 70 566 112 615 174 c 5
 615 67 l 5
 556 15 492 -10 390 -10 c 4
 196 -10 40 141 40 350 c 4
 40 559 196 710 390 710 c 4
 492 710 556 685 615 633 c 5
 615 526 l 5
 566 588 489 630 390 630 c 4
 242 630 125 513 125 350 c 4
EndSplineSet
Validated: 1
EndChar

StartChar: E
Encoding: 69 69 4
Width: 550
VWidth: 0
Flags: MW
LayerCount: 2
Fore
SplineSet
127 0 m 5
 127 80 l 5
 480 80 l 5
 480 0 l 5
 127 0 l 5
127 620 m 5
 127 700 l 5
 480 700 l 5
 480 620 l 5
 127 620 l 5
127 340 m 5
 127 420 l 5
 460 420 l 5
 460 340 l 5
 127 340 l 5
80 700 m 5
 165 700 l 5
 165 0 l 5
 80 0 l 5
 80 700 l 5
EndSplineSet
Validated: 5
EndChar

StartChar: F
Encoding: 70 70 6
Width: 490
VWidth: 0
Flags: HMW
LayerCount: 2
Fore
SplineSet
127 620 m 1
 127 700 l 1
 440 700 l 5
 440 620 l 1
 127 620 l 1
127 340 m 1
 127 420 l 1
 430 420 l 1
 430 340 l 1
 127 340 l 1
80 700 m 1
 165 700 l 1
 165 0 l 1
 80 0 l 1
 80 700 l 1
EndSplineSet
Validated: 5
EndChar

StartChar: G
Encoding: 71 71 7
Width: 785
VWidth: 0
Flags: HMW
LayerCount: 2
Fore
SplineSet
430 275 m 1
 430 355 l 1
 655 355 l 1
 655 275 l 1
 430 275 l 1
740 355 m 1
 740 151 614 -10 400 -10 c 0
 196 -10 40 141 40 350 c 0
 40 559 196 710 400 710 c 1
 400 630 l 1
 242 630 125 513 125 350 c 0
 125 187 242 70 400 70 c 0
 568 70 655 197 655 355 c 1
 740 355 l 1
636 506 m 1
 592 580 507 630 400 630 c 1
 400 710 l 1
 529 710 636 658 696 561 c 1
 636 506 l 1
EndSplineSet
EndChar

StartChar: T
Encoding: 84 84 8
Width: 465
VWidth: 0
Flags: MW
LayerCount: 2
Fore
SplineSet
10 620 m 1
 10 700 l 1
 455 700 l 5
 455 620 l 5
 10 620 l 1
190 700 m 1
 275 700 l 1
 275 0 l 1
 190 0 l 1
 190 700 l 1
EndSplineSet
Validated: 5
EndChar

StartChar: L
Encoding: 76 76 9
Width: 450
VWidth: 0
Flags: MW
LayerCount: 2
Fore
SplineSet
127 0 m 5
 127 80 l 5
 440 80 l 5
 440 0 l 5
 127 0 l 5
80 700 m 1
 165 700 l 1
 165 0 l 1
 80 0 l 1
 80 700 l 1
EndSplineSet
Validated: 5
EndChar

StartChar: D
Encoding: 68 68 10
Width: 680
VWidth: 0
Flags: HMW
LayerCount: 2
Fore
SplineSet
127 0 m 5
 127 80 l 5
 290 80 l 5
 290 0 l 5
 127 0 l 5
127 620 m 5
 127 700 l 5
 290 700 l 5
 290 620 l 5
 127 620 l 5
80 700 m 5
 165 700 l 5
 165 0 l 5
 80 0 l 5
 80 700 l 5
290 80 m 5
 448 80 555 187 555 350 c 4
 555 513 448 620 290 620 c 5
 290 700 l 5
 494 700 640 559 640 350 c 4
 640 141 494 0 290 0 c 5
 290 80 l 5
EndSplineSet
Validated: 5
EndChar

StartChar: Q
Encoding: 81 81 11
Width: 800
VWidth: 0
Flags: HMW
LayerCount: 2
Fore
SplineSet
399 300 m 1
 504 300 l 1
 794 0 l 1
 689 0 l 5
 399 300 l 1
125 350 m 0
 125 187 242 70 400 70 c 0
 558 70 675 187 675 350 c 0
 675 513 558 630 400 630 c 0
 242 630 125 513 125 350 c 0
40 350 m 0
 40 559 196 710 400 710 c 0
 604 710 760 559 760 350 c 0
 760 141 604 -10 400 -10 c 0
 196 -10 40 141 40 350 c 0
EndSplineSet
Validated: 5
EndChar

StartChar: A
Encoding: 65 65 12
Width: 660
VWidth: 0
Flags: MW
LayerCount: 2
Fore
SplineSet
147 210 m 5
 147 290 l 5
 517 290 l 5
 517 210 l 5
 147 210 l 5
295 625 m 5
 330 735 l 5
 655 0 l 5
 560 0 l 5
 295 625 l 5
330 735 m 5
 365 625 l 5
 100 0 l 5
 5 0 l 5
 330 735 l 5
EndSplineSet
Validated: 5
EndChar

StartChar: R
Encoding: 82 82 13
Width: 550
VWidth: 0
Flags: HMW
LayerCount: 2
Fore
SplineSet
205 350 m 5
 310 350 l 1
 550 0 l 1
 445 0 l 5
 205 350 l 5
270 280 m 1
 270 360 l 1
 360 360 423 404 423 490 c 0
 423 576 360 620 270 620 c 1
 270 700 l 1
 405 700 508 619 508 490 c 0
 508 361 405 280 270 280 c 1
127 280 m 1
 127 360 l 1
 270 360 l 1
 270 280 l 1
 127 280 l 1
127 620 m 1
 127 700 l 1
 270 700 l 1
 270 620 l 1
 127 620 l 1
80 700 m 1
 165 700 l 1
 165 0 l 1
 80 0 l 1
 80 700 l 1
EndSplineSet
Validated: 5
EndChar

StartChar: V
Encoding: 86 86 14
Width: 660
VWidth: 0
Flags: MW
LayerCount: 2
Fore
SplineSet
365 75 m 5
 330 -35 l 5
 5 700 l 5
 100 700 l 5
 365 75 l 5
330 -35 m 5
 295 75 l 5
 560 700 l 5
 655 700 l 5
 330 -35 l 5
EndSplineSet
Validated: 5
EndChar

StartChar: M
Encoding: 77 77 15
Width: 830
VWidth: 0
Flags: HMW
LayerCount: 2
Fore
SplineSet
135 565 m 5
 135 735 l 1
 450 165 l 1
 415 65 l 1
 135 565 l 5
135 735 m 1
 190 505 l 5
 135 0 l 1
 50 0 l 1
 135 735 l 1
640 505 m 1
 695 735 l 1
 780 0 l 1
 695 0 l 1
 640 505 l 1
695 735 m 1
 695 565 l 1
 415 65 l 1
 380 165 l 1
 695 735 l 1
EndSplineSet
EndChar

StartChar: W
Encoding: 87 87 16
Width: 990
VWidth: 0
Flags: HMW
LayerCount: 2
Fore
SplineSet
740 80 m 1
 705 -35 l 1
 460 600 l 5
 495 735 l 1
 740 80 l 1
705 -35 m 1
 670 90 l 1
 885 700 l 1
 980 700 l 1
 705 -35 l 1
320 90 m 1
 285 -35 l 1
 10 700 l 1
 105 700 l 1
 320 90 l 1
285 -35 m 1
 250 80 l 1
 495 735 l 1
 530 600 l 5
 285 -35 l 1
EndSplineSet
EndChar

StartChar: N
Encoding: 78 78 17
Width: 765
VWidth: 0
Flags: HMW
LayerCount: 2
Fore
SplineSet
80 605 m 1
 75 735 l 1
 685 95 l 5
 690 -35 l 5
 80 605 l 1
605 700 m 5
 690 700 l 5
 690 -35 l 5
 605 75 l 5
 605 700 l 5
75 735 m 1
 160 625 l 1
 160 0 l 1
 75 0 l 1
 75 735 l 1
EndSplineSet
Validated: 5
EndChar

StartChar: a
Encoding: 97 97 18
Width: 485
VWidth: 0
Flags: MW
LayerCount: 2
Fore
SplineSet
345 330 m 5
 425 330 l 5
 425 0 l 5
 345 0 l 5
 345 330 l 5
111 352 m 5
 72 413 l 5
 106 438 165 470 248 470 c 4
 353 470 425 419 425 330 c 5
 345 330 l 5
 345 376 298 400 248 400 c 4
 182 400 133 368 111 352 c 5
111 140 m 4
 111 74 173 61 218 61 c 4
 298 61 345 94 345 180 c 5
 361 130 l 5
 361 41 283 -10 188 -10 c 4
 123 -10 30 31 30 140 c 4
 30 237 135 286 236 286 c 4
 314 286 354 259 378 235 c 5
 378 192 l 5
 330 217 288 225 240 225 c 4
 156 225 111 196 111 140 c 4
EndSplineSet
Validated: 5
Substitution2: "simple a" a.alt
EndChar

StartChar: X
Encoding: 88 88 19
Width: 555
VWidth: 0
Flags: MW
LayerCount: 2
Fore
SplineSet
35 700 m 5
 130 700 l 5
 545 0 l 5
 450 0 l 5
 35 700 l 5
435 700 m 5
 530 700 l 5
 105 0 l 5
 10 0 l 5
 435 700 l 5
EndSplineSet
Validated: 5
EndChar

StartChar: K
Encoding: 75 75 20
Width: 560
VWidth: 0
Flags: HMW
LayerCount: 2
Fore
SplineSet
125 380 m 5
 230 380 l 5
 555 0 l 1
 450 0 l 1
 125 380 l 5
435 700 m 1
 540 700 l 1
 235 370 l 5
 130 370 l 5
 435 700 l 1
75 700 m 1
 160 700 l 1
 160 0 l 1
 75 0 l 1
 75 700 l 1
EndSplineSet
Validated: 5
EndChar

StartChar: Y
Encoding: 89 89 21
Width: 565
VWidth: 0
Flags: HMW
LayerCount: 2
Fore
SplineSet
238 360 m 1
 323 360 l 1
 323 0 l 1
 238 0 l 1
 238 360 l 1
5 700 m 1
 100 700 l 1
 315 310 l 1
 240 280 l 1
 5 700 l 1
465 700 m 1
 560 700 l 1
 315 280 l 1
 240 310 l 5
 465 700 l 1
EndSplineSet
Validated: 5
EndChar

StartChar: B
Encoding: 66 66 22
Width: 558
VWidth: 0
Flags: HMW
LayerCount: 2
Fore
SplineSet
250 370 m 1
 250 420 l 1
 340 420 383 454 383 520 c 0
 383 586 340 620 250 620 c 1
 250 700 l 1
 385 700 468 634 468 525 c 0
 468 416 385 370 250 370 c 1
270 0 m 5
 270 80 l 5
 360 80 423 124 423 210 c 4
 423 296 360 340 270 340 c 5
 270 390 l 5
 405 390 508 334 508 205 c 4
 508 76 405 0 270 0 c 5
127 0 m 5
 127 80 l 5
 270 80 l 5
 270 0 l 5
 127 0 l 5
127 620 m 1
 127 700 l 1
 250 700 l 1
 250 620 l 1
 127 620 l 1
127 340 m 5
 127 420 l 5
 270 420 l 5
 270 340 l 5
 127 340 l 5
80 700 m 1
 165 700 l 1
 165 0 l 1
 80 0 l 1
 80 700 l 1
EndSplineSet
Validated: 5
EndChar

StartChar: Z
Encoding: 90 90 23
Width: 525
VWidth: 0
Flags: HMW
LayerCount: 2
Fore
SplineSet
10 0 m 1
 80 80 l 1
 500 80 l 1
 500 0 l 1
 10 0 l 1
30 620 m 5
 30 700 l 5
 520 700 l 5
 450 620 l 5
 30 620 l 5
425 700 m 5
 520 700 l 5
 105 0 l 5
 10 0 l 5
 425 700 l 5
EndSplineSet
Validated: 5
EndChar

StartChar: o
Encoding: 111 111 24
Width: 546
VWidth: 0
Flags: MW
LayerCount: 2
Fore
SplineSet
35 230 m 0
 35 369 138 470 273 470 c 0
 408 470 511 369 511 230 c 0
 511 91 408 -10 273 -10 c 0
 138 -10 35 91 35 230 c 0
116 230 m 0
 116 134 183 65 273 65 c 0
 363 65 430 134 430 230 c 0
 430 326 363 395 273 395 c 0
 183 395 116 326 116 230 c 0
EndSplineSet
Validated: 1
EndChar

StartChar: J
Encoding: 74 74 25
Width: 260
VWidth: 0
Flags: HMW
LayerCount: 2
Fore
SplineSet
170 -60 m 1
 90 -50 l 1
 90 700 l 1
 170 700 l 1
 170 -60 l 1
-57 -104 m 1
 -43 -127 -14 -140 22 -140 c 4
 52 -140 90 -116 90 -50 c 1
 170 -60 l 1
 170 -169 111 -220 17 -220 c 4
 -36 -220 -86 -190 -101 -170 c 1
 -57 -104 l 1
EndSplineSet
Validated: 5
EndChar

StartChar: t
Encoding: 116 116 26
Width: 240
VWidth: 0
Flags: HMW
LayerCount: 2
Fore
SplineSet
5 460 m 5
 235 460 l 5
 235 385 l 5
 5 385 l 5
 5 460 l 5
80 620 m 1
 160 620 l 1
 160 0 l 1
 80 0 l 1
 80 620 l 1
EndSplineSet
Validated: 5
EndChar

StartChar: d
Encoding: 100 100 27
Width: 570
VWidth: 0
Flags: HMW
LayerCount: 2
Fore
SplineSet
420 780 m 5
 500 780 l 5
 500 0 l 5
 420 0 l 5
 420 780 l 5
35 230 m 4
 35 379 138 470 263 470 c 4
 378 470 456 379 456 230 c 4
 456 81 378 -10 263 -10 c 4
 138 -10 35 81 35 230 c 4
116 230 m 4
 116 124 188 65 273 65 c 4
 343 65 420 124 420 230 c 4
 420 336 343 395 273 395 c 4
 188 395 116 336 116 230 c 4
EndSplineSet
Validated: 5
EndChar

StartChar: l
Encoding: 108 108 28
Width: 230
VWidth: 0
Flags: MW
LayerCount: 2
Fore
SplineSet
75 780 m 5
 155 780 l 5
 155 0 l 5
 75 0 l 5
 75 780 l 5
EndSplineSet
Validated: 1
EndChar

StartChar: i
Encoding: 105 105 29
Width: 260
VWidth: 0
Flags: HMW
LayerCount: 2
Fore
SplineSet
75 650 m 0
 75 680 100 705 130 705 c 0
 160 705 185 680 185 650 c 0
 185 620 160 595 130 595 c 0
 100 595 75 620 75 650 c 0
90 460 m 5
 170 460 l 5
 170 0 l 1
 90 0 l 1
 90 460 l 5
EndSplineSet
Validated: 1
EndChar

StartChar: r
Encoding: 114 114 30
Width: 343
VWidth: 0
Flags: HMW
LayerCount: 2
Fore
SplineSet
155 460 m 1
 155 0 l 1
 75 0 l 1
 75 460 l 1
 155 460 l 1
294 372 m 5
 272 388 258 395 232 395 c 4
 172 395 155 346 155 280 c 5
 119 280 l 5
 119 389 187 470 252 470 c 4
 285 470 314 463 338 438 c 5
 294 372 l 5
EndSplineSet
Validated: 5
EndChar

StartChar: c
Encoding: 99 99 31
Width: 478
VWidth: 0
Flags: MW
LayerCount: 2
Fore
SplineSet
111 230 m 4
 111 134 178 65 268 65 c 4
 341.930664062 65 407.088867188 101.559570312 428 146.399414062 c 5
 428 48.7998046875 l 5
 396.249023438 10.689453125 330.560546875 -10 268 -10 c 4
 133 -10 30 91 30 230 c 4
 30 369 133 470 268 470 c 4
 330.560546875 470 396.249023438 448.310546875 428 411.200195312 c 5
 428 313.600585938 l 5
 407.088867188 358.440429688 341.930664062 395 268 395 c 4
 178 395 111 326 111 230 c 4
EndSplineSet
Validated: 1
EndChar

StartChar: b
Encoding: 98 98 32
Width: 570
VWidth: 0
Flags: MW
LayerCount: 2
Fore
SplineSet
150 780 m 5
 150 0 l 5
 70 0 l 5
 70 780 l 5
 150 780 l 5
535 230 m 4
 535 81 432 -10 307 -10 c 4
 192 -10 114 81 114 230 c 4
 114 379 192 470 307 470 c 4
 432 470 535 379 535 230 c 4
454 230 m 4
 454 336 382 395 297 395 c 4
 227 395 150 336 150 230 c 4
 150 124 227 65 297 65 c 4
 382 65 454 124 454 230 c 4
EndSplineSet
Validated: 5
EndChar

StartChar: p
Encoding: 112 112 33
Width: 570
VWidth: 0
Flags: HMW
LayerCount: 2
Fore
SplineSet
150 -220 m 5
 70 -220 l 5
 70 460 l 5
 150 460 l 5
 150 -220 l 5
535 230 m 4
 535 81 432 -10 307 -10 c 4
 192 -10 114 81 114 230 c 4
 114 379 192 470 307 470 c 4
 432 470 535 379 535 230 c 4
454 230 m 4
 454 336 382 395 297 395 c 4
 227 395 150 336 150 230 c 4
 150 124 227 65 297 65 c 4
 382 65 454 124 454 230 c 4
EndSplineSet
Validated: 5
EndChar

StartChar: q
Encoding: 113 113 34
Width: 570
VWidth: 0
Flags: HMW
LayerCount: 2
Fore
SplineSet
420 -220 m 5
 420 460 l 5
 500 460 l 5
 500 -220 l 5
 420 -220 l 5
35 230 m 4
 35 379 138 470 263 470 c 4
 378 470 456 379 456 230 c 4
 456 81 378 -10 263 -10 c 4
 138 -10 35 81 35 230 c 4
116 230 m 4
 116 124 188 65 273 65 c 4
 343 65 420 124 420 230 c 4
 420 336 343 395 273 395 c 4
 188 395 116 336 116 230 c 4
EndSplineSet
Validated: 5
EndChar

StartChar: h
Encoding: 104 104 35
Width: 525
VWidth: 0
Flags: HMW
LayerCount: 2
Fore
SplineSet
450 290 m 5
 450 0 l 5
 370 0 l 5
 370 280 l 5
 450 290 l 5
155 780 m 5
 155 0 l 5
 75 0 l 5
 75 780 l 5
 155 780 l 5
450 290 m 5
 370 280 l 5
 370 356 337 395 272 395 c 4
 202 395 155 346 155 280 c 5
 119 280 l 5
 119 389 197 470 292 470 c 4
 387 470 450 409 450 290 c 5
EndSplineSet
Validated: 5
EndChar

StartChar: n
Encoding: 110 110 36
Width: 525
VWidth: 0
Flags: HMW
LayerCount: 2
Fore
SplineSet
450 290 m 5
 450 0 l 5
 370 0 l 5
 370 280 l 5
 450 290 l 5
155 460 m 5
 155 0 l 5
 75 0 l 5
 75 460 l 5
 155 460 l 5
450 290 m 5
 370 280 l 5
 370 356 337 395 272 395 c 4
 202 395 155 346 155 280 c 5
 119 280 l 5
 119 389 197 470 292 470 c 4
 387 470 450 409 450 290 c 5
EndSplineSet
Validated: 5
EndChar

StartChar: m
Encoding: 109 109 37
Width: 780
VWidth: 0
Flags: HMW
LayerCount: 2
Fore
SplineSet
705 290 m 1
 705 0 l 1
 625 0 l 1
 625 280 l 1
 705 290 l 1
705 290 m 1
 625 280 l 1
 625 356 602 395 537 395 c 0
 467 395 430 346 430 280 c 1
 384 280 l 5
 384 389 462 470 557 470 c 0
 652 470 705 409 705 290 c 1
430 290 m 1
 430 0 l 1
 350 0 l 1
 350 280 l 1
 430 290 l 1
155 460 m 1
 155 0 l 1
 75 0 l 1
 75 460 l 1
 155 460 l 1
430 290 m 1
 350 280 l 1
 350 356 327 395 262 395 c 0
 192 395 155 346 155 280 c 1
 119 280 l 1
 119 389 187 470 282 470 c 0
 377 470 430 409 430 290 c 1
EndSplineSet
Validated: 5
EndChar

StartChar: k
Encoding: 107 107 38
Width: 440
VWidth: 0
Flags: HMW
LayerCount: 2
Fore
SplineSet
120 270 m 5
 220 270 l 5
 440 0 l 5
 340 0 l 5
 120 270 l 5
320 460 m 5
 420 460 l 5
 220 270 l 5
 120 270 l 5
 320 460 l 5
70 780 m 5
 150 780 l 5
 150 0 l 5
 70 0 l 5
 70 780 l 5
EndSplineSet
Validated: 5
EndChar

StartChar: u
Encoding: 117 117 39
Width: 525
VWidth: 0
Flags: MW
LayerCount: 2
Fore
SplineSet
75 170 m 1
 75 460 l 1
 155 460 l 1
 155 180 l 1
 75 170 l 1
370 0 m 1
 370 460 l 1
 450 460 l 1
 450 0 l 1
 370 0 l 1
75 170 m 1
 155 180 l 1
 155 104 188 65 253 65 c 0
 323 65 370 114 370 180 c 1
 406 180 l 1
 406 71 328 -10 233 -10 c 0
 138 -10 75 51 75 170 c 1
EndSplineSet
Validated: 5
EndChar

StartChar: e
Encoding: 101 101 40
Width: 515
VWidth: 0
Flags: HMW
LayerCount: 2
Fore
SplineSet
35 230 m 5
 65 270 l 5
 136 270 l 5
 126 230 l 5
 35 230 l 5
116 210 m 5
 116 278 l 5
 459 278 l 5
 479 210 l 5
 116 210 l 5
479 210 m 5
 395 250 l 5
 395 336 353 400 263 400 c 4
 183 400 118 346 118 260 c 5
 35 230 l 5
 35 369 128 470 263 470 c 4
 393 470 480 379 480 234 c 4
 480 226 480 218 479 210 c 5
35 230 m 5
 116 230 l 5
 116 124 173 65 263 65 c 4
 330 65 376 98 407 148 c 5
 472 107 l 5
 426 37 372 -10 253 -10 c 4
 128 -10 35 91 35 230 c 5
EndSplineSet
Validated: 5
EndChar

StartChar: g
Encoding: 103 103 41
Width: 570
VWidth: 0
Flags: HMW
LayerCount: 2
Fore
SplineSet
44 -30 m 5
 125 -30 l 5
 125 -96 182 -155 272 -155 c 4
 342 -155 420 -106 420 10 c 5
 500 10 l 5
 500 -149 387 -230 272 -230 c 4
 137 -230 44 -149 44 -30 c 5
420 10 m 1
 420 460 l 1
 500 460 l 1
 500 10 l 1
 420 10 l 1
35 230 m 0
 35 379 138 470 263 470 c 0
 378 470 456 379 456 230 c 0
 456 81 378 -10 263 -10 c 0
 138 -10 35 81 35 230 c 0
116 230 m 0
 116 124 188 65 273 65 c 0
 343 65 420 124 420 230 c 0
 420 336 343 395 273 395 c 0
 188 395 116 336 116 230 c 0
EndSplineSet
Validated: 5
EndChar

StartChar: f
Encoding: 102 102 42
Width: 286
VWidth: 0
Flags: MW
LayerCount: 2
Fore
SplineSet
40 460 m 5
 270 460 l 5
 270 385 l 5
 40 385 l 5
 40 460 l 5
85 630 m 5
 165 620 l 5
 165 0 l 5
 85 0 l 5
 85 630 l 5
262 684 m 5
 248 707 229 710 213 710 c 4
 183 710 165 686 165 620 c 5
 85 630 l 5
 85 739 134 790 218 790 c 4
 261 790 291 770 306 750 c 5
 262 684 l 5
EndSplineSet
Validated: 5
EndChar

StartChar: s
Encoding: 115 115 43
Width: 408
VWidth: 0
Flags: HMW
LayerCount: 2
Fore
SplineSet
310 339 m 1
 290 377 246 394 209 394 c 0
 169 394 139 380 139 349 c 1
 59 349 l 1
 59 425 134 470 208 470 c 0
 281 470 356 431 374 380 c 1
 310 339 l 1
59 349 m 5
 139 349 l 5
 139 313.373046875 199.897460938 287.5703125 251 266.337890625 c 4
 316.3359375 239.192382812 378 197.497070312 378 130 c 5
 295 123 l 5
 295 173.408203125 243.888671875 193.79296875 191 214.897460938 c 4
 127.65625 240.173828125 59 272.387695312 59 349 c 5
96 161 m 1
 108 105 158 65 215 65 c 0
 265 65 295 83 295 123 c 1
 378 130 l 1
 378 31 309 -10 210 -10 c 0
 125 -10 44 48 30 123 c 1
 96 161 l 1
EndSplineSet
Validated: 5
EndChar

StartChar: y
Encoding: 121 121 44
Width: 440
VWidth: 0
Flags: HMW
LayerCount: 2
Fore
SplineSet
192.94140625 104 m 1
 253 104 l 0
 440 460 l 1
 140 -220 l 1
 50 -220 l 1
 192.94140625 104 l 0
 192.94140625 104 l 1
350 460 m 1
 440 460 l 1
 220 -35 l 1
 200 85 l 1
 350 460 l 1
0 460 m 1
 95 460 l 5
 245 85 l 5
 220 -35 l 1
 0 460 l 1
EndSplineSet
EndChar

StartChar: w
Encoding: 119 119 45
Width: 680
VWidth: 0
Flags: HMW
LayerCount: 2
Fore
SplineSet
585 460 m 1
 675 460 l 1
 475 -35 l 1
 445 95 l 5
 585 460 l 1
305 375 m 1
 335 495 l 1
 495 95 l 1
 475 -35 l 1
 305 375 l 1
335 495 m 1
 365 375 l 1
 205 -35 l 1
 185 95 l 1
 335 495 l 1
5 460 m 1
 95 460 l 1
 235 95 l 1
 205 -35 l 1
 5 460 l 1
EndSplineSet
Validated: 5
EndChar

StartChar: v
Encoding: 118 118 46
Width: 440
VWidth: 0
Flags: HMW
LayerCount: 2
Fore
SplineSet
350 460 m 5
 440 460 l 5
 220 -35 l 5
 200 85 l 5
 350 460 l 5
0 460 m 5
 90 460 l 5
 240 85 l 5
 220 -35 l 5
 0 460 l 5
EndSplineSet
Validated: 5
EndChar

StartChar: x
Encoding: 120 120 47
Width: 420
VWidth: 0
Flags: MW
LayerCount: 2
Fore
SplineSet
10 460 m 1
 100 460 l 1
 420 0 l 5
 330 0 l 1
 10 460 l 1
320 460 m 1
 410 460 l 5
 90 0 l 1
 0 0 l 1
 320 460 l 1
EndSplineSet
Validated: 5
EndChar

StartChar: z
Encoding: 122 122 48
Width: 450
VWidth: 0
Flags: HMW
LayerCount: 2
Fore
SplineSet
90 75 m 1
 420 75 l 1
 420 0 l 1
 10 0 l 1
 90 75 l 1
30 460 m 5
 440 460 l 5
 370 385 l 5
 30 385 l 5
 30 460 l 5
350 460 m 5
 440 460 l 5
 100 0 l 5
 10 0 l 5
 350 460 l 5
EndSplineSet
Validated: 5
EndChar

StartChar: j
Encoding: 106 106 49
Width: 260
VWidth: 0
Flags: HMW
LayerCount: 2
Fore
SplineSet
75 650 m 0
 75 680 100 705 130 705 c 0
 160 705 185 680 185 650 c 0
 185 620 160 595 130 595 c 0
 100 595 75 620 75 650 c 0
170 -60 m 1
 90 -50 l 1
 90 460 l 1
 170 460 l 1
 170 -60 l 1
-7 -114 m 5
 7 -137 26 -140 42 -140 c 4
 72 -140 90 -116 90 -50 c 5
 170 -60 l 5
 170 -169 121 -220 37 -220 c 4
 -6 -220 -36 -200 -51 -180 c 5
 -7 -114 l 5
EndSplineSet
Validated: 5
EndChar

StartChar: P
Encoding: 80 80 50
Width: 550
VWidth: 0
Flags: HMW
LayerCount: 2
Fore
SplineSet
270 280 m 5
 270 360 l 5
 360 360 423 404 423 490 c 4
 423 576 360 620 270 620 c 5
 270 700 l 5
 405 700 508 619 508 490 c 4
 508 361 405 280 270 280 c 5
127 280 m 5
 127 360 l 5
 270 360 l 5
 270 280 l 5
 127 280 l 5
127 620 m 5
 127 700 l 5
 270 700 l 5
 270 620 l 5
 127 620 l 5
80 700 m 5
 165 700 l 5
 165 0 l 5
 80 0 l 5
 80 700 l 5
EndSplineSet
Validated: 5
EndChar

StartChar: U
Encoding: 85 85 51
Width: 626
VWidth: 0
Flags: MW
LayerCount: 2
Fore
SplineSet
466 700 m 5
 551 700 l 5
 551 230 l 5
 466 230 l 5
 466 700 l 5
75 700 m 1
 160 700 l 1
 160 230 l 1
 75 230 l 1
 75 700 l 1
313 -10 m 0
 178 -10 75 91 75 230 c 1
 160 230 l 1
 160 134 223 70 313 70 c 0
 403 70 466 134 466 230 c 1
 551 230 l 1
 551 91 448 -10 313 -10 c 0
EndSplineSet
Validated: 5
EndChar

StartChar: S
Encoding: 83 83 52
Width: 538
VWidth: 0
Flags: HMW
LayerCount: 2
Fore
SplineSet
415 514 m 1
 385 572 346 629 269 629 c 0
 189 629 154 595 154 534 c 1
 65 540 l 5
 65 636 154 710 268 710 c 0
 381 710 456 631 484 560 c 1
 415 514 l 1
65 540 m 5
 154 534 l 1
 154 458.373046875 230.682389605 427.93831479 316 396.337890625 c 0
 389.068359375 369.274414062 493 317.497070312 493 190 c 1
 405 183 l 1
 405 273.408203125 320.852539062 309.27734375 241 337.897460938 c 0
 171.433959994 362.830772271 65 413.387695312 65 540 c 5
102 226 m 1
 144 130 198 70 285 70 c 0
 365 70 405 113 405 183 c 1
 493 190 l 1
 493 71 419 -10 280 -10 c 0
 165 -10 74 68 30 183 c 1
 102 226 l 1
EndSplineSet
Validated: 5
EndChar

StartChar: at
Encoding: 64 64 53
Width: 770
VWidth: 0
Flags: HMW
LayerCount: 2
Fore
SplineSet
495 520 m 1
 570 520 l 1
 529 279 l 2
 527.85546875 272.0234375 527 260 527 252 c 0
 527 228 533 206 566 206 c 0
 596 206 665 264 665 390 c 1
 735 390 l 1
 735 221 626 140 551 140 c 0
 490 140 461 194 471 260 c 0
 472.647460938 270.875976562 447 251 449 260 c 2
 495 520 l 1
266 310 m 0
 266 254 293 220 348 220 c 0
 398 220 465 264 465 370 c 0
 465 436 428 460 378 460 c 0
 313 460 266 406 266 310 c 0
190 310 m 0
 190 449 293 530 378 530 c 0
 463 530 501 459 501 370 c 0
 501 231 423 150 328 150 c 0
 253 150 190 211 190 310 c 0
35 320 m 0
 35 539 191 710 415 710 c 0
 619 710 735 549 735 390 c 1
 665 390 l 1
 665 523 573 645 415 645 c 0
 227 645 105 503 105 320 c 0
 105 157 207 55 355 55 c 1
 355 -10 l 1
 151 -10 35 121 35 320 c 0
355 55 m 1
 445 55 500 65 566 107 c 1
 602 53 l 1
 542 24 489 -10 355 -10 c 1
 355 55 l 1
EndSplineSet
EndChar

StartChar: period
Encoding: 46 46 54
Width: 300
VWidth: 0
Flags: HMW
LayerCount: 2
Fore
SplineSet
95 40 m 4
 95 70 120 95 150 95 c 4
 180 95 205 70 205 40 c 4
 205 10 180 -15 150 -15 c 4
 120 -15 95 10 95 40 c 4
EndSplineSet
Validated: 1
EndChar

StartChar: comma
Encoding: 44 44 55
Width: 308
VWidth: 0
Flags: HMW
LayerCount: 2
Fore
SplineSet
148 110 m 5
 228 80 l 5
 118 -170 l 5
 60 -149 l 5
 148 110 l 5
EndSplineSet
Validated: 1
EndChar

StartChar: exclam
Encoding: 33 33 59
Width: 300
VWidth: 0
Flags: HMW
LayerCount: 2
Fore
SplineSet
100 700 m 5
 200 700 l 5
 180 200 l 5
 120 200 l 5
 100 700 l 5
95 40 m 4
 95 70 120 95 150 95 c 4
 180 95 205 70 205 40 c 4
 205 10 180 -15 150 -15 c 4
 120 -15 95 10 95 40 c 4
EndSplineSet
Validated: 1
EndChar

StartChar: quotesingle
Encoding: 39 39 60
Width: 295
VWidth: 0
Flags: HMW
LayerCount: 2
Fore
SplineSet
150 700 m 5
 245 700 l 5
 155 400 l 5
 100 400 l 5
 150 700 l 5
EndSplineSet
Validated: 1
EndChar

StartChar: numbersign
Encoding: 35 35 61
Width: 605
VWidth: 0
Flags: HMW
LayerCount: 2
Fore
SplineSet
65 440 m 1
 65 505 l 1
 560 505 l 1
 560 440 l 1
 65 440 l 1
45 200 m 1
 45 265 l 1
 540 265 l 1
 540 200 l 1
 45 200 l 1
455 700 m 1
 530 700 l 1
 360 0 l 1
 285 0 l 1
 455 700 l 1
245 700 m 1
 320 700 l 1
 150 0 l 1
 75 0 l 1
 245 700 l 1
EndSplineSet
Validated: 5
EndChar

StartChar: hyphen
Encoding: 45 45 62
Width: 210
VWidth: 0
Flags: HMW
LayerCount: 2
Fore
SplineSet
5 200 m 5
 5 275 l 5
 205 275 l 5
 205 200 l 5
 5 200 l 5
EndSplineSet
Validated: 1
EndChar

StartChar: bar
Encoding: 124 124 64
Width: 274
VWidth: 0
Flags: HMW
LayerCount: 2
Fore
SplineSet
100 785 m 5
 174 785 l 5
 174 -215 l 5
 100 -215 l 5
 100 785 l 5
EndSplineSet
EndChar

StartChar: zero
Encoding: 48 48 65
Width: 600
VWidth: 0
Flags: HMW
LayerCount: 2
Fore
SplineSet
125 350 m 4
 125 187 192 70 300 70 c 4
 408 70 475 187 475 350 c 4
 475 513 408 630 300 630 c 4
 192 630 125 513 125 350 c 4
40 350 m 4
 40 559 146 710 300 710 c 4
 454 710 560 559 560 350 c 4
 560 141 454 -10 300 -10 c 4
 146 -10 40 141 40 350 c 4
EndSplineSet
Validated: 1
EndChar

StartChar: one
Encoding: 49 49 66
Width: 470
VWidth: 0
Flags: HMW
LayerCount: 2
Fore
SplineSet
110 562 m 5
 110 650 l 5
 350 710 l 5
 310 622 l 5
 110 562 l 5
265 670 m 5
 350 710 l 5
 350 0 l 1
 265 0 l 1
 265 670 l 5
EndSplineSet
EndChar

StartChar: two
Encoding: 50 50 67
Width: 569
VWidth: 0
Flags: HMW
LayerCount: 2
Fore
SplineSet
64 0 m 1
 134 80 l 1
 514 80 l 1
 514 0 l 1
 64 0 l 1
509 516 m 5
 424 516 l 5
 424 582 377 631 297 631 c 4
 197 631 140 556 140 460 c 5
 55 460 l 5
 55 599 142 711 297 711 c 4
 442 711 509 605 509 516 c 5
403 294 m 6
 123 0 l 5
 20 0 l 5
 329 335 l 6
 391.041015625 402.26171875 424 450 424 516 c 5
 509 516 l 5
 509 419 458.9765625 352.775390625 403 294 c 6
EndSplineSet
Validated: 5
EndChar

StartChar: four
Encoding: 52 52 68
Width: 593
VWidth: 0
Flags: HMW
LayerCount: 2
Fore
SplineSet
20 140 m 5
 90 215 l 5
 563 215 l 5
 563 140 l 5
 20 140 l 5
110 140 m 5
 20 140 l 5
 453 750 l 5
 453 620 l 5
 110 140 l 5
368 540 m 5
 453 750 l 5
 453 0 l 5
 368 0 l 5
 368 540 l 5
EndSplineSet
Validated: 5
EndChar

StartChar: slash
Encoding: 47 47 69
Width: 615
VWidth: 0
Flags: HMW
LayerCount: 2
Fore
SplineSet
515 700 m 5
 600 700 l 5
 100 -150 l 5
 15 -150 l 5
 515 700 l 5
EndSplineSet
Validated: 1
EndChar

StartChar: backslash
Encoding: 92 92 70
Width: 515
VWidth: 0
Flags: HMW
LayerCount: 2
Fore
SplineSet
15 700 m 5
 100 700 l 5
 500 0 l 1
 415 0 l 1
 15 700 l 5
EndSplineSet
Validated: 1
EndChar

StartChar: eight
Encoding: 56 56 71
Width: 546
VWidth: 0
Flags: HMW
LayerCount: 2
Fore
SplineSet
80 531 m 0
 80 640 168 710 273 710 c 0
 378 710 466 640 466 531 c 0
 466 412 388 355 273 355 c 4
 158 355 80 412 80 531 c 0
161 521 m 0
 161 455 203 410 273 410 c 4
 343 410 385 455 385 521 c 0
 385 597 333 635 273 635 c 0
 213 635 161 597 161 521 c 0
55 190 m 0
 55 319 158 390 273 390 c 4
 388 390 491 319 491 190 c 0
 491 81 398 -10 273 -10 c 0
 148 -10 55 81 55 190 c 0
136 200 m 0
 136 114 203 65 273 65 c 0
 343 65 410 114 410 200 c 0
 410 276 343 335 273 335 c 4
 203 335 136 276 136 200 c 0
EndSplineSet
Validated: 5
EndChar

StartChar: three
Encoding: 51 51 73
Width: 546
VWidth: 0
Flags: HMW
LayerCount: 2
Fore
SplineSet
253 345 m 1
 253 400 l 1
 363 400 395 450 395 516 c 0
 395 582 358 635 288 635 c 0
 218 635 171 597 171 526 c 1
 90 526 l 1
 90 635 173 710 288 710 c 0
 403 710 476 625 476 526 c 0
 476 407 408 345 253 345 c 1
273 -10 m 0
 138 -10 60 76 60 185 c 1
 141 185 l 1
 141 119 193 65 273 65 c 0
 353 65 415 109 415 195 c 0
 415 271 363 325 253 325 c 1
 253 380 l 1
 408 380 496 314 496 185 c 0
 496 66 408 -10 273 -10 c 0
EndSplineSet
EndChar

StartChar: five
Encoding: 53 53 74
Width: 564
VWidth: 0
Flags: HMW
LayerCount: 2
Fore
SplineSet
192 700 m 5
 522 700 l 5
 522 625 l 5
 192 625 l 5
 192 700 l 5
192 700 m 5
 277 700 l 5
 205 417 l 5
 100 327 l 5
 192 700 l 5
524 230 m 5
 436 230 l 5
 436 336 369 390 279 390 c 4
 212 390 171 377 100 327 c 5
 150 393 l 5
 226 453 230 470 319 470 c 4
 424 470 524 379 524 230 c 5
524 230 m 5
 524 61 404 -10 279 -10 c 4
 150 -10 76 57 30 137 c 5
 102 186 l 5
 133 126 202 70 279 70 c 4
 369 70 436 124 436 230 c 5
 524 230 l 5
EndSplineSet
Validated: 5
EndChar

StartChar: six
Encoding: 54 54 75
Width: 556
VWidth: 0
Flags: HMW
LayerCount: 2
Fore
SplineSet
320 700 m 5
 427 700 l 5
 181 375 l 5
 84 375 l 5
 320 700 l 5
40 230 m 4
 40 286.768554688 57.185546875 337.556640625 84 375 c 4
 105.75390625 405.376953125 142.288085938 386.671875 171 402.0078125 c 5
 215.03515625 430.188476562 235.6796875 453 319 453 c 4
 423 453 516 359 516 230 c 4
 516 86 413 -10 278 -10 c 4
 143 -10 40 86 40 230 c 4
121 230 m 4
 121 134 188 67 278 67 c 4
 368 67 435 134 435 230 c 4
 435 326 368 395 278 395 c 4
 188 395 121 326 121 230 c 4
EndSplineSet
Validated: 5
EndChar

StartChar: seven
Encoding: 55 55 76
Width: 525
VWidth: 0
Flags: HMW
LayerCount: 2
Fore
SplineSet
30 620 m 1
 30 700 l 1
 520 700 l 1
 450 620 l 1
 30 620 l 1
431 700 m 1
 520 700 l 1
 185 0 l 5
 96 0 l 5
 431 700 l 1
EndSplineSet
Validated: 5
EndChar

StartChar: plus
Encoding: 43 43 77
Width: 615
VWidth: 0
Flags: HMW
LayerCount: 2
Fore
SplineSet
65 215 m 1
 65 295 l 1
 550 295 l 1
 550 215 l 1
 65 215 l 1
265 500 m 5
 350 500 l 5
 350 10 l 5
 265 10 l 5
 265 500 l 5
EndSplineSet
Validated: 5
EndChar

StartChar: percent
Encoding: 37 37 79
Width: 751
VWidth: 0
Flags: HMW
LayerCount: 2
Fore
SplineSet
35 550 m 4
 35 639 98 710 193 710 c 4
 288 710 351 639 351 550 c 4
 351 461 288 390 193 390 c 4
 98 390 35 461 35 550 c 4
106 550 m 4
 106 499 138 455 193 455 c 4
 248 455 280 499 280 550 c 4
 280 601 248 645 193 645 c 4
 138 645 106 601 106 550 c 4
400 150 m 4
 400 239 463 310 558 310 c 4
 653 310 716 239 716 150 c 4
 716 61 653 -10 558 -10 c 4
 463 -10 400 61 400 150 c 4
471 150 m 4
 471 99 503 55 558 55 c 4
 613 55 645 99 645 150 c 4
 645 201 613 245 558 245 c 4
 503 245 471 201 471 150 c 4
563 700 m 5
 638 700 l 5
 188 0 l 5
 113 0 l 5
 563 700 l 5
EndSplineSet
Validated: 1
EndChar

StartChar: ampersand
Encoding: 38 38 80
Width: 675
VWidth: 0
Flags: HMW
LayerCount: 2
Fore
SplineSet
40 190 m 1
 123 200 l 1
 123 134 175 65 295 65 c 0
 412 65 541 216 602 316 c 1
 664 277 l 1
 588 157 464 -10 295 -10 c 0
 150 -10 40 61 40 190 c 1
147 556 m 1
 147 650 219 711 324 711 c 0
 439 711 491 648 491 554 c 1
 410 554 l 1
 410 590 384 635 324 635 c 0
 264 635 231 592 231 556 c 1
 147 556 l 1
253 344 m 2
 201.826171875 406.87109375 147 459 147 556 c 1
 231 556 l 1
 231 490 267.762695312 456.314453125 325 385 c 2
 655 0 l 1
 554 0 l 1
 253 344 l 2
491 554 m 5
 491 477.387695312 411.56640625 412.831054688 349 377.897460938 c 4
 274.935956699 336.544227546 123 320.408203125 123 200 c 1
 40 190 l 1
 40 357.497070312 212.1484375 387.19140625 284 417.337890625 c 0
 359.317382812 448.938476562 410 508.373046875 410 554 c 1
 491 554 l 5
EndSplineSet
Validated: 5
EndChar

StartChar: question
Encoding: 63 63 81
Width: 557
VWidth: 0
Flags: HMW
LayerCount: 2
Fore
SplineSet
198 345 m 5
 288 345 l 5
 278 170 l 5
 218 170 l 5
 198 345 l 5
416 500 m 5
 497 500 l 5
 497 381 389 290 274 290 c 5
 224 345 l 5
 344 345 416 424 416 500 c 5
497 500 m 5
 416 500 l 5
 416 586 359 635 269 635 c 4
 202 635 156 602 125 552 c 5
 60 593 l 5
 106 663 160 710 279 710 c 4
 404 710 497 619 497 500 c 5
195 40 m 4
 195 70 220 95 250 95 c 4
 280 95 305 70 305 40 c 4
 305 10 280 -15 250 -15 c 4
 220 -15 195 10 195 40 c 4
EndSplineSet
Validated: 5
EndChar

StartChar: parenleft
Encoding: 40 40 82
Width: 310
VWidth: 0
Flags: HMW
LayerCount: 2
Fore
SplineSet
205 780 m 5
 280 780 l 5
 210 630 180 460 180 290 c 4
 180 120 210 -50 280 -200 c 5
 205 -200 l 5
 125 -50 90 120 90 290 c 4
 90 460 125 630 205 780 c 5
EndSplineSet
Validated: 1
EndChar

StartChar: asterisk
Encoding: 42 42 84
Width: 592
VWidth: 0
Flags: HMW
LayerCount: 2
Fore
SplineSet
471 599 m 1
 492 532 l 1
 304 481 l 1
 288 529 l 1
 471 599 l 1
439 368 m 1
 382 327 l 1
 276 490 l 1
 316 520 l 1
 439 368 l 1
210 327 m 1
 153 368 l 1
 276 520 l 1
 316 490 l 1
 210 327 l 1
100 532 m 1
 121 599 l 1
 304 529 l 1
 288 481 l 1
 100 532 l 1
261 700 m 1
 331 700 l 1
 321 505 l 1
 271 505 l 1
 261 700 l 1
EndSplineSet
Validated: 5
EndChar

StartChar: less
Encoding: 60 60 85
Width: 640
VWidth: 0
Flags: HMW
LayerCount: 2
Fore
SplineSet
65 275 m 5
 142 275 l 5
 142 240 l 5
 65 240 l 5
 65 275 l 5
145 240 m 5
 65 275 l 5
 575 495 l 5
 575 420 l 5
 145 240 l 5
65 240 m 5
 145 285 l 5
 575 95 l 5
 575 20 l 5
 65 240 l 5
EndSplineSet
Validated: 5
EndChar

StartChar: bracketleft
Encoding: 91 91 87
Width: 300
VWidth: 0
Flags: HMW
LayerCount: 2
Fore
SplineSet
174 -215 m 1
 174 -140 l 1
 280 -140 l 1
 280 -215 l 1
 174 -215 l 1
174 710 m 1
 174 785 l 1
 280 785 l 1
 280 710 l 1
 174 710 l 1
100 785 m 1
 179 785 l 1
 179 -215 l 1
 100 -215 l 1
 100 785 l 1
EndSplineSet
Validated: 5
EndChar

StartChar: asciicircum
Encoding: 94 94 89
Width: 510
VWidth: 0
Flags: HMW
LayerCount: 2
Fore
SplineSet
235 710 m 1
 275 710 l 1
 275 650 l 1
 235 650 l 1
 235 710 l 1
235 650 m 1
 275 710 l 1
 445 460 l 5
 365 460 l 5
 235 650 l 1
235 710 m 1
 275 650 l 1
 145 460 l 1
 65 460 l 1
 235 710 l 1
EndSplineSet
Validated: 5
EndChar

StartChar: grave
Encoding: 96 96 91
Width: 375
VWidth: 0
Flags: HMW
LayerCount: 2
Fore
SplineSet
75 660 m 1
 150 700 l 1
 300 540 l 5
 255 510 l 5
 75 660 l 1
EndSplineSet
Validated: 1
EndChar

StartChar: braceleft
Encoding: 123 123 92
Width: 321
VWidth: 0
Flags: HMW
LayerCount: 2
Fore
SplineSet
95 320 m 1
 95 260 l 1
 80 260 l 1
 80 320 l 1
 95 320 l 1
95 300 m 5
 204 300 208 179 208 90 c 1
 128 150 l 1
 128 226 110 250 80 260 c 1
 80 260 92.1455078125 284.525390625 95 300 c 5
231 -200 m 1
 261 -130 l 1
 291 -130 l 1
 291 -200 l 1
 231 -200 l 1
128 -60 m 1
 128 160 l 1
 208 90 l 1
 208 -80 l 1
 128 -60 l 1
261 -130 m 1
 231 -200 l 5
 187 -200 128 -159 128 -60 c 1
 208 -80 l 1
 208 -106 226 -130 256 -130 c 2
 261 -130 l 1
80 320 m 1
 110 330 128 354 128 430 c 1
 208 490 l 1
 208 401 204 280 95 280 c 5
 91.900390625 295.611328125 80 320 80 320 c 1
231 780 m 1
 291 780 l 1
 291 710 l 1
 261 710 l 1
 231 780 l 1
128 640 m 1
 208 660 l 1
 208 490 l 1
 128 420 l 1
 128 640 l 1
261 710 m 1
 256 710 l 2
 226 710 208 686 208 660 c 1
 128 640 l 1
 128 739 187 780 231 780 c 1
 261 710 l 1
EndSplineSet
Validated: 5
EndChar

StartChar: asciitilde
Encoding: 126 126 94
Width: 575
VWidth: 0
Flags: HMW
LayerCount: 2
Fore
SplineSet
142 176 m 1
 68 181 l 1
 66 188 65 196 65 205 c 0
 65 226 71 251 89 275 c 0
 115 310 152 327 194 327 c 0
 233 327 275 311 317 279 c 0
 347 256 372 247 390 247 c 0
 404 247 416 251 424 261 c 0
 430 269 432 282 432 296 c 0
 432 304 431 313 427 323 c 1
 506 318 l 1
 508 310 510 300 510 290 c 0
 510 270 505 242 488 219 c 0
 462 185 430 172 394 172 c 0
 360 172 322 188 279 220 c 0
 249 243 218 253 193 253 c 0
 174 253 159 247 151 237 c 0
 144 228 138 214 138 198 c 0
 138 191 139 184 142 176 c 1
EndSplineSet
Validated: 1
EndChar

StartChar: sterling
Encoding: 163 163 97
Width: 522
VWidth: 0
Flags: HMW
LayerCount: 2
Fore
SplineSet
35 0 m 1
 125 80 l 1
 488 80 l 1
 488 0 l 1
 35 0 l 1
87 518 m 1
 174 520 l 1
 174 404 269 376 269 264 c 0
 269 158 197 70 123 50 c 1
 35 0 l 1
 133 102 188 161 188 249 c 0
 188 343 87 382 87 518 c 1
38 370 m 1
 398 370 l 1
 398 295 l 1
 38 295 l 1
 38 370 l 1
421 479 m 1
 417 552 378 626 292 626 c 0
 232 626 174 596 174 520 c 1
 87 518 l 1
 87 637 173 710 297 710 c 0
 440 710 487 588 492 508 c 1
 421 479 l 1
EndSplineSet
Validated: 5
EndChar

StartChar: currency
Encoding: 164 164 98
Width: 565
VWidth: 0
Flags: HMW
LayerCount: 2
Fore
SplineSet
29.5234375 503.241210938 m 1
 79.0205078125 552.73828125 l 1
 172.66015625 459.098632812 l 1
 123.163085938 409.6015625 l 1
 29.5234375 503.241210938 l 1
79.0205078125 47.26171875 m 1
 29.5234375 96.7587890625 l 1
 123.163085938 190.3984375 l 1
 172.66015625 140.901367188 l 1
 79.0205078125 47.26171875 l 1
441.360351562 409.6015625 m 1
 391.86328125 459.098632812 l 1
 485.502929688 552.73828125 l 1
 535 503.241210938 l 1
 441.360351562 409.6015625 l 1
391.86328125 140.901367188 m 1
 441.360351562 190.3984375 l 1
 535 96.7587890625 l 5
 485.502929688 47.26171875 l 5
 391.86328125 140.901367188 l 1
44.26171875 300 m 0
 44.26171875 439 147.26171875 540 282.26171875 540 c 0
 417.26171875 540 520.26171875 439 520.26171875 300 c 0
 520.26171875 161 417.26171875 60 282.26171875 60 c 0
 147.26171875 60 44.26171875 161 44.26171875 300 c 0
125.26171875 300 m 0
 125.26171875 204 192.26171875 135 282.26171875 135 c 0
 372.26171875 135 439.26171875 204 439.26171875 300 c 0
 439.26171875 396 372.26171875 465 282.26171875 465 c 0
 192.26171875 465 125.26171875 396 125.26171875 300 c 0
EndSplineSet
EndChar

StartChar: brokenbar
Encoding: 166 166 100
Width: 274
VWidth: 0
Flags: HMW
LayerCount: 2
Fore
SplineSet
100 695 m 1
 174 695 l 1
 174 455 l 1
 100 455 l 1
 100 695 l 1
174 245 m 5
 174 5 l 1
 100 5 l 1
 100 245 l 5
 174 245 l 5
EndSplineSet
EndChar

StartChar: section
Encoding: 167 167 101
Width: 408
VWidth: 0
Flags: HMW
LayerCount: 2
Fore
SplineSet
210 275 m 5
 260 275 295 323 295 363 c 5
 378 370 l 5
 378 271 309 240 210 240 c 5
 210 275 l 5
310 579 m 5
 290 617 246 634 209 634 c 4
 169 634 139 620 139 589 c 5
 59 589 l 5
 59 665 134 710 208 710 c 4
 281 710 356 671 374 620 c 5
 310 579 l 5
59 589 m 5
 139 589 l 5
 139 553.373046875 199.897460938 527.5703125 251 506.337890625 c 4
 316.3359375 479.192382812 378 437.497070312 378 370 c 5
 295 363 l 5
 295 413.408203125 243.888671875 433.79296875 191 454.897460938 c 4
 127.65625 480.173828125 59 512.387695312 59 589 c 5
59 359 m 5
 139 369 l 5
 139 303.373046875 199.897460938 287.5703125 251 266.337890625 c 4
 316.3359375 239.192382812 378 197.497070312 378 130 c 5
 295 123 l 5
 295 173.408203125 243.888671875 193.79296875 191 214.897460938 c 4
 127.65625 240.173828125 59 282.387695312 59 359 c 5
96 161 m 5
 108 105 158 65 215 65 c 4
 265 65 295 83 295 123 c 5
 378 130 l 5
 378 31 309 -10 210 -10 c 4
 125 -10 44 48 30 123 c 5
 96 161 l 5
228 454 m 5
 168 434 139 410 139 369 c 5
 59 359 l 5
 59 435 114 480 228 480 c 5
 228 454 l 5
EndSplineSet
Validated: 5
EndChar

StartChar: copyright
Encoding: 169 169 103
Width: 800
VWidth: 0
Flags: HMW
LayerCount: 2
Fore
SplineSet
95 350 m 4
 95 172 227 40 400 40 c 4
 573 40 705 172 705 350 c 4
 705 528 573 660 400 660 c 4
 227 660 95 528 95 350 c 4
40 350 m 4
 40 559 196 710 400 710 c 4
 604 710 760 559 760 350 c 4
 760 141 604 -10 400 -10 c 4
 196 -10 40 141 40 350 c 4
EndSplineSet
Refer: 3 67 N 0.6 0 0 0.6 161 140 2
Validated: 1
EndChar

StartChar: registered
Encoding: 174 174 104
Width: 800
VWidth: 0
Flags: HMW
LayerCount: 2
Fore
SplineSet
95 350 m 0
 95 172 227 40 400 40 c 0
 573 40 705 172 705 350 c 0
 705 528 573 660 400 660 c 0
 227 660 95 528 95 350 c 0
40 350 m 0
 40 559 196 710 400 710 c 0
 604 710 760 559 760 350 c 0
 760 141 604 -10 400 -10 c 0
 196 -10 40 141 40 350 c 0
EndSplineSet
Refer: 13 82 S 0.6 0 0 0.6 226 150 2
Validated: 5
EndChar

StartChar: logicalnot
Encoding: 172 172 110
Width: 620
VWidth: 0
Flags: HMW
LayerCount: 2
Fore
SplineSet
480 375 m 5
 555 375 l 1
 555 175 l 1
 480 175 l 5
 480 375 l 5
EndSplineSet
Refer: 62 45 N 2.45 0 0 1 52.75 100 2
Validated: 5
EndChar

StartChar: plusminus
Encoding: 177 177 113
Width: 615
VWidth: 0
Flags: HMW
LayerCount: 2
Fore
SplineSet
65 70 m 5
 65 150 l 5
 550 150 l 5
 550 70 l 5
 65 70 l 5
65 335 m 5
 65 415 l 5
 550 415 l 5
 550 335 l 5
 65 335 l 5
265 570 m 5
 350 570 l 5
 350 180 l 5
 265 180 l 5
 265 570 l 5
EndSplineSet
Validated: 5
EndChar

StartChar: acute
Encoding: 180 180 116
Width: 375
VWidth: 0
Flags: HMW
LayerCount: 2
Fore
SplineSet
300 660 m 5
 120 510 l 5
 75 540 l 5
 225 700 l 5
 300 660 l 5
EndSplineSet
Validated: 1
EndChar

StartChar: paragraph
Encoding: 182 182 118
Width: 578
VWidth: 0
Flags: HMW
LayerCount: 2
Fore
SplineSet
288 635 m 1
 288 700 l 1
 488 700 l 1
 488 635 l 1
 288 635 l 1
448 700 m 1
 518 700 l 1
 518 -220 l 5
 448 -220 l 5
 448 700 l 1
288 700 m 1
 358 700 l 1
 358 -220 l 5
 288 -220 l 5
 288 700 l 1
288 270 m 1
 163 270 60 346 60 485 c 0
 60 624 163 700 288 700 c 1
 288 270 l 1
EndSplineSet
Validated: 5
EndChar

StartChar: cedilla
Encoding: 184 184 121
Width: 350
Flags: HMW
LayerCount: 2
Fore
SplineSet
196 60 m 1
 247 60 l 1
 191.799804688 -53.7998046875 l 1
 120.799804688 -97.7998046875 l 1
 196 60 l 1
265.200195312 -126 m 1
 218.400390625 -126 l 5
 218.400390625 -102.400390625 202.200195312 -80 168.200195312 -80 c 0
 158 -80 143.400390625 -81.7998046875 120.799804688 -97.7998046875 c 1
 150.799804688 -68.2001953125 l 1
 176.400390625 -52.2001953125 188.799804688 -52 202.200195312 -52 c 0
 235.200195312 -52 265.200195312 -86.599609375 265.200195312 -126 c 1
265.200195312 -126 m 1
 265.200195312 -187.400390625 223.200195312 -220 168.200195312 -220 c 0
 130.799804688 -220 106.400390625 -209.799804688 78.7998046875 -181.799804688 c 1
 112 -152.400390625 l 1
 130.599609375 -168.400390625 142 -176 168.200195312 -176 c 0
 202.200195312 -176 218.400390625 -149.599609375 218.400390625 -126 c 5
 265.200195312 -126 l 1
EndSplineSet
Validated: 5
EndChar

StartChar: multiply
Encoding: 215 215 123
Width: 596
VWidth: 0
Flags: HMW
LayerCount: 2
Fore
SplineSet
276 273 m 5
 321 273 l 5
 321 232 l 5
 276 232 l 5
 276 273 l 5
280 222 m 1
 331 273 l 1
 531 78 l 1
 475 22 l 1
 280 222 l 1
65 432 m 1
 121 488 l 1
 316 288 l 1
 265 237 l 1
 65 432 l 1
331 237 m 1
 280 288 l 1
 475 488 l 1
 531 432 l 1
 331 237 l 1
121 22 m 1
 65 78 l 1
 265 273 l 1
 316 222 l 1
 121 22 l 1
EndSplineSet
Validated: 5
EndChar

StartChar: Thorn
Encoding: 222 222 125
Width: 550
VWidth: 0
Flags: HMW
LayerCount: 2
Fore
SplineSet
270 140 m 5
 270 220 l 5
 360 220 423 264 423 350 c 4
 423 436 360 480 270 480 c 5
 270 560 l 5
 405 560 508 479 508 350 c 4
 508 221 405 140 270 140 c 5
127 140 m 5
 127 220 l 5
 270 220 l 5
 270 140 l 5
 127 140 l 5
127 480 m 5
 127 560 l 5
 270 560 l 5
 270 480 l 5
 127 480 l 5
80 700 m 1
 165 700 l 1
 165 0 l 1
 80 0 l 1
 80 700 l 1
EndSplineSet
Validated: 5
EndChar

StartChar: circumflex
Encoding: 710 710 128
Width: 480
VWidth: 0
Flags: HMW
LayerCount: 2
Fore
SplineSet
200 680 m 5
 240 730 l 1
 400 590 l 1
 350 550 l 1
 200 680 l 5
240 730 m 1
 280 680 l 5
 130 550 l 1
 80 590 l 1
 240 730 l 1
EndSplineSet
Validated: 5
EndChar

StartChar: ogonek
Encoding: 731 731 129
Width: 260
VWidth: 0
Flags: HMW
LayerCount: 2
Fore
SplineSet
194 -130 m 1
 227 -180 l 1
 212 -200 182 -220 139 -220 c 0
 55 -220 16 -179 16 -120 c 1
 96 -100 l 5
 96 -136 114 -150 144 -150 c 4
 170 -150 180 -143 194 -130 c 1
96 -100 m 1
 16 -120 l 1
 16 -61 77.7509765625 -11 147.750976562 25 c 1
 188.750976562 0 l 1
 136.690429688 -22.27734375 96.296875 -62.6220703125 96 -100 c 1
EndSplineSet
Validated: 5
EndChar

StartChar: tilde
Encoding: 732 732 130
Width: 530
VWidth: 0
Flags: HMW
LayerCount: 2
Fore
SplineSet
80 625 m 1
 90 674.352539062 144.494140625 707 189 707 c 0
 228 707 256.184570312 691.529296875 272 682 c 0
 295.749023438 667.690429688 315 660 343 660 c 4
 362.408203125 660 384 676.29296875 404 708 c 1
 450 665 l 1
 434 628.231445312 388.641601562 592 339 592 c 0
 305 592 283.999023438 599.616210938 261 612 c 0
 239.208984375 623.733398438 213 639 188 639 c 0
 147.361328125 639 133 602.698242188 133 588 c 1
 80 625 l 1
EndSplineSet
Validated: 1
EndChar

StartChar: ring
Encoding: 730 730 131
Width: 278
VWidth: 0
Flags: HMW
LayerCount: 2
Fore
SplineSet
40 785 m 4
 40 844.5 81.5 885 139 885 c 4
 196.5 885 238 844.5 238 785 c 4
 238 725.5 196.5 685 139 685 c 4
 81.5 685 40 725.5 40 785 c 4
80.5 785 m 4
 80.5 747 104 722.5 139 722.5 c 4
 174 722.5 197.5 747 197.5 785 c 4
 197.5 823 174 847.5 139 847.5 c 4
 104 847.5 80.5 823 80.5 785 c 4
EndSplineSet
Validated: 1
EndChar

StartChar: quoteright
Encoding: 8217 8217 138
Width: 295
VWidth: 0
Flags: HMW
LayerCount: 2
Fore
SplineSet
150 700 m 5
 245 700 l 5
 145 470 l 5
 90 470 l 5
 150 700 l 5
EndSplineSet
Validated: 1
EndChar

StartChar: perthousand
Encoding: 8240 8240 143
Width: 1131
VWidth: 0
Flags: HMW
LayerCount: 2
Fore
SplineSet
780 150 m 4
 780 239 843 310 938 310 c 4
 1033 310 1096 239 1096 150 c 4
 1096 61 1033 -10 938 -10 c 4
 843 -10 780 61 780 150 c 4
851 150 m 4
 851 99 883 55 938 55 c 4
 993 55 1025 99 1025 150 c 4
 1025 201 993 245 938 245 c 4
 883 245 851 201 851 150 c 4
35 550 m 4
 35 639 98 710 193 710 c 4
 288 710 351 639 351 550 c 4
 351 461 288 390 193 390 c 4
 98 390 35 461 35 550 c 4
106 550 m 4
 106 499 138 455 193 455 c 4
 248 455 280 499 280 550 c 4
 280 601 248 645 193 645 c 4
 138 645 106 601 106 550 c 4
400 150 m 4
 400 239 463 310 558 310 c 4
 653 310 716 239 716 150 c 4
 716 61 653 -10 558 -10 c 4
 463 -10 400 61 400 150 c 4
471 150 m 4
 471 99 503 55 558 55 c 4
 613 55 645 99 645 150 c 4
 645 201 613 245 558 245 c 4
 503 245 471 201 471 150 c 4
563 700 m 5
 638 700 l 5
 188 0 l 5
 113 0 l 5
 563 700 l 5
EndSplineSet
Validated: 1
EndChar

StartChar: guilsinglleft
Encoding: 8249 8249 144
Width: 350
VWidth: 0
Flags: HMW
LayerCount: 2
Fore
SplineSet
110 235 m 5
 40 255 l 5
 230 490 l 5
 280 445 l 5
 110 235 l 5
40 255 m 5
 110 285 l 5
 280 65 l 5
 230 20 l 5
 40 255 l 5
EndSplineSet
Validated: 5
EndChar

StartChar: uni2031
Encoding: 8241 8241 146
Width: 1511
VWidth: 0
Flags: HMW
LayerCount: 2
Fore
SplineSet
1160 150 m 0
 1160 239 1223 310 1318 310 c 0
 1413 310 1476 239 1476 150 c 0
 1476 61 1413 -10 1318 -10 c 0
 1223 -10 1160 61 1160 150 c 0
1231 150 m 0
 1231 99 1263 55 1318 55 c 0
 1373 55 1405 99 1405 150 c 0
 1405 201 1373 245 1318 245 c 0
 1263 245 1231 201 1231 150 c 0
780 150 m 0
 780 239 843 310 938 310 c 0
 1033 310 1096 239 1096 150 c 0
 1096 61 1033 -10 938 -10 c 0
 843 -10 780 61 780 150 c 0
851 150 m 0
 851 99 883 55 938 55 c 0
 993 55 1025 99 1025 150 c 0
 1025 201 993 245 938 245 c 0
 883 245 851 201 851 150 c 0
35 550 m 0
 35 639 98 710 193 710 c 0
 288 710 351 639 351 550 c 0
 351 461 288 390 193 390 c 0
 98 390 35 461 35 550 c 0
106 550 m 0
 106 499 138 455 193 455 c 0
 248 455 280 499 280 550 c 0
 280 601 248 645 193 645 c 0
 138 645 106 601 106 550 c 0
400 150 m 0
 400 239 463 310 558 310 c 0
 653 310 716 239 716 150 c 0
 716 61 653 -10 558 -10 c 0
 463 -10 400 61 400 150 c 0
471 150 m 0
 471 99 503 55 558 55 c 0
 613 55 645 99 645 150 c 0
 645 201 613 245 558 245 c 0
 503 245 471 201 471 150 c 0
563 700 m 5
 638 700 l 5
 188 0 l 5
 113 0 l 5
 563 700 l 5
EndSplineSet
Validated: 1
EndChar

StartChar: Euro
Encoding: 8364 8364 148
Width: 700
VWidth: 0
Flags: HMW
LayerCount: 2
Fore
SplineSet
125 350 m 0
 125 187 212 70 340 70 c 0
 396.578813496 70 449.054574937 92.8598614493 490 132.447756593 c 1
 490 30.6275079723 l 1
 445.01305801 4.46127087709 393.847309087 -10 340 -10 c 0
 166 -10 40 141 40 350 c 0
 40 559 166 710 340 710 c 0
 393.847309087 710 445.01305801 695.538729123 490 669.372492028 c 1
 490 567.552243407 l 1
 449.054574937 607.140138551 396.578813496 630 340 630 c 0
 212 630 125 513 125 350 c 0
EndSplineSet
Refer: 62 45 N 2.375 0 0 0.64 -26.875 159 2
Refer: 62 45 N 2.505 0 0 0.64 -27.525 279 2
Validated: 5
EndChar

StartChar: fraction
Encoding: 8260 8260 149
Width: 705
VWidth: 0
Flags: HMW
LayerCount: 2
Fore
SplineSet
580 700 m 1
 645 700 l 1
 125 0 l 5
 60 0 l 5
 580 700 l 1
EndSplineSet
Validated: 1
EndChar

StartChar: AE
Encoding: 198 198 191
Width: 975
VWidth: 0
Flags: HMW
LayerCount: 2
Fore
SplineSet
232 210 m 1
 232 290 l 1
 532 290 l 1
 532 210 l 1
 232 210 l 1
450 700 m 1
 519 660 l 5
 115 0 l 1
 20 0 l 1
 450 700 l 1
552 0 m 1
 552 80 l 1
 905 80 l 1
 905 0 l 1
 552 0 l 1
560 620 m 1
 450 700 l 1
 905 700 l 1
 905 620 l 1
 560 620 l 1
552 340 m 1
 552 420 l 1
 885 420 l 1
 885 340 l 1
 552 340 l 1
505 700 m 1
 590 700 l 1
 590 0 l 1
 505 0 l 1
 505 700 l 1
EndSplineSet
EndChar

StartChar: germandbls
Encoding: 223 223 219
Width: 570
VWidth: 0
Flags: HMW
LayerCount: 2
Fore
SplineSet
80 606 m 1
 160 606 l 1
 160 0 l 1
 80 0 l 1
 80 606 l 1
252 425 m 1
 252 480 l 1
 362 480 404 540 404 596 c 4
 404 662 367 715 277 715 c 0
 217 715 160 682 160 606 c 1
 80 606 l 1
 80 715 172 790 277 790 c 0
 412 790 485 715 485 606 c 4
 485 487 407 425 252 425 c 1
272 65 m 1
 352 65 444 129 444 235 c 0
 444 321 362 405 252 405 c 1
 252 460 l 1
 407 460 525 364 525 225 c 0
 525 86 407 -10 272 -10 c 1
 272 65 l 1
EndSplineSet
EndChar

StartChar: ae
Encoding: 230 230 220
Width: 825
VWidth: 0
Flags: HMW
LayerCount: 2
Fore
SplineSet
416 210 m 1
 416 278 l 1
 769 278 l 1
 789 210 l 1
 416 210 l 1
789 210 m 1
 705 250 l 1
 705 336 663 400 573 400 c 0
 493 400 428 346 428 260 c 1
 385 230 l 1
 385 369 448 470 583 470 c 0
 703 470 790 379 790 234 c 0
 790 226 790 218 789 210 c 1
365 230 m 5
 426 230 l 1
 426 124 483 65 573 65 c 0
 640 65 686 98 717 148 c 1
 782 107 l 1
 736 37 682 -10 573 -10 c 0
 418 -10 365 91 365 230 c 5
345 330 m 1
 425 330 l 1
 425 130 l 1
 345 130 l 1
 345 330 l 1
111 352 m 1
 72 413 l 1
 106 438 165 470 248 470 c 0
 353 470 425 419 425 330 c 1
 345 330 l 1
 345 376 298 400 248 400 c 0
 182 400 133 368 111 352 c 1
111 140 m 0
 111 74 173 61 218 61 c 0
 298 61 345 94 345 180 c 1
 401 130 l 1
 401 41 303 -10 208 -10 c 0
 123 -10 30 31 30 140 c 0
 30 237 135 286 236 286 c 0
 314 286 354 259 378 235 c 1
 378 192 l 1
 330 217 288 225 240 225 c 0
 156 225 111 196 111 140 c 0
EndSplineSet
EndChar

StartChar: dotlessi
Encoding: 305 305 227
Width: 260
VWidth: 0
Flags: MW
LayerCount: 2
Fore
SplineSet
90 460 m 1
 170 460 l 1
 170 0 l 1
 90 0 l 1
 90 460 l 1
EndSplineSet
Validated: 1
EndChar

StartChar: kgreenlandic
Encoding: 312 312 228
Width: 440
VWidth: 0
Flags: HMW
LayerCount: 2
Fore
SplineSet
120 270 m 1
 220 270 l 1
 440 0 l 1
 340 0 l 1
 120 270 l 1
320 460 m 1
 420 460 l 1
 220 270 l 1
 120 270 l 1
 320 460 l 1
70 460 m 5
 150 460 l 5
 150 0 l 1
 70 0 l 1
 70 460 l 5
EndSplineSet
Validated: 5
EndChar

StartChar: thorn
Encoding: 254 254 243
Width: 570
VWidth: 0
Flags: HMW
LayerCount: 2
Fore
SplineSet
150 -220 m 1
 70 -220 l 1
 70 780 l 5
 150 780 l 5
 150 -220 l 1
535 230 m 0
 535 81 432 -10 307 -10 c 0
 192 -10 114 81 114 230 c 0
 114 379 192 470 307 470 c 0
 432 470 535 379 535 230 c 0
454 230 m 0
 454 336 382 395 297 395 c 0
 227 395 150 336 150 230 c 0
 150 124 227 65 297 65 c 0
 382 65 454 124 454 230 c 0
EndSplineSet
Validated: 5
EndChar

StartChar: breve
Encoding: 728 728 247
Width: 546
VWidth: 0
Flags: HMW
LayerCount: 2
Fore
SplineSet
115 850 m 1
 186 850 l 1
 186 824 203 775 273 775 c 4
 343 775 360 824 360 850 c 1
 431 850 l 1
 431 781 378 710 273 710 c 0
 168 710 115 781 115 850 c 1
EndSplineSet
Validated: 1
EndChar

StartChar: eth
Encoding: 240 240 302
Width: 556
VWidth: 0
Flags: HMW
LayerCount: 2
Fore
SplineSet
236 700 m 1
 472 375 l 1
 375 375 l 1
 129 700 l 1
 236 700 l 1
516 230 m 0
 516 86 413 -10 278 -10 c 0
 143 -10 40 86 40 230 c 0
 40 359 133 453 237 453 c 0
 320.3203125 453 340.96484375 430.188476562 385 402.0078125 c 1
 413.711914062 386.671875 450.24609375 405.376953125 472 375 c 0
 498.814453125 337.556640625 516 286.768554688 516 230 c 0
435 230 m 0
 435 326 368 395 278 395 c 0
 188 395 121 326 121 230 c 0
 121 134 188 67 278 67 c 0
 368 67 435 134 435 230 c 0
EndSplineSet
Refer: 62 45 S 1.5 0 0 1 137.5 320 2
EndChar

StartChar: OE
Encoding: 338 338 308
Width: 985
VWidth: 0
Flags: HW
LayerCount: 2
Fore
SplineSet
553 700 m 5
 553 620 l 5
 390 620 l 5
 390 700 l 5
 553 700 l 5
553 80 m 5
 553 0 l 5
 390 0 l 5
 390 80 l 5
 553 80 l 5
390 620 m 5
 232 620 125 513 125 350 c 4
 125 187 232 80 390 80 c 5
 390 0 l 5
 186 0 40 141 40 350 c 4
 40 559 186 700 390 700 c 5
 390 620 l 5
562 0 m 5
 562 80 l 5
 915 80 l 5
 915 0 l 5
 562 0 l 5
562 620 m 5
 562 700 l 5
 915 700 l 5
 915 620 l 5
 562 620 l 5
562 340 m 5
 562 420 l 5
 895 420 l 5
 895 340 l 5
 562 340 l 5
515 700 m 5
 600 700 l 5
 600 0 l 5
 515 0 l 5
 515 700 l 5
EndSplineSet
EndChar

StartChar: oe
Encoding: 339 339 309
Width: 905
VWidth: 0
Flags: HW
LayerCount: 2
Fore
SplineSet
35 230 m 0
 35 369 138 470 273 470 c 0
 408 470 491 339 491 230 c 0
 491 121 408 -10 273 -10 c 0
 138 -10 35 91 35 230 c 0
116 230 m 0
 116 134 183 65 273 65 c 0
 363 65 430 134 430 230 c 0
 430 326 363 395 273 395 c 0
 183 395 116 326 116 230 c 0
435 230 m 1
 475 270 l 1
 526 270 l 1
 516 230 l 1
 435 230 l 1
506 210 m 1
 506 278 l 1
 849 278 l 1
 869 210 l 1
 506 210 l 1
869 210 m 1
 785 250 l 1
 785 336 743 400 653 400 c 0
 573 400 508 346 508 260 c 1
 435 230 l 1
 435 359 518 470 653 470 c 0
 783 470 870 379 870 234 c 0
 870 226 870 218 869 210 c 1
435 230 m 5
 506 230 l 1
 506 124 563 65 653 65 c 0
 720 65 766 98 797 148 c 1
 862 107 l 1
 816 37 762 -10 643 -10 c 0
 518 -10 435 101 435 230 c 5
EndSplineSet
EndChar

StartChar: a.alt
Encoding: 65536 -1 310
Width: 570
VWidth: 0
Flags: HW
LayerCount: 2
Fore
SplineSet
420 460 m 5
 500 460 l 5
 500 0 l 1
 420 0 l 1
 420 460 l 5
35 230 m 0
 35 379 138 470 263 470 c 0
 378 470 456 379 456 230 c 0
 456 81 378 -10 263 -10 c 0
 138 -10 35 81 35 230 c 0
116 230 m 0
 116 124 188 65 273 65 c 0
 343 65 420 124 420 230 c 0
 420 336 343 395 273 395 c 0
 188 395 116 336 116 230 c 0
EndSplineSet
EndChar
